# AST/ASF file generated using VICON BodyLanguage
# -----------------------------------------------
:version 1.10
:name VICON
:units
  mass 1.0
  length 0.45
  angle deg
:documentation
   .ast/.asf automatically generated from VICON data using
   VICON BodyBuilder and BodyLanguage model FoxedUp or BRILLIANT.MOD
:root
   order TX TY TZ RX RY RZ
   axis XYZ
   position 0 0 0  
   orientation 0 0 0 
:bonedata
  begin
     id 1 
     name lhipjoint
     direction 0.625129 -0.738222 0.253461 
     length 2.5165 
     axis 0 0 0  XYZ
  end
  begin
     id 2 
     name lfemur
     direction 0.34202 -0.939693 0  
     length 7.54288  
     axis 0 0 20  XYZ
    dof rx ry rz
    limits (-160.0 20.0)
           (-70.0 70.0)
           (-60.0 70.0)
  end
  begin
     id 3 
     name ltibia
     direction 0.34202 -0.939693 0   
     length 7.71864   
     axis 0 0 20   XYZ
    dof rx
    limits (-10.0 170.0)
  end
  begin
     id 4 
     name lfoot
     direction 0.0772037 -0.212115 0.97419   
     length 2.18429   
     axis -90 7.62852e-016 20   XYZ
    dof rx rz
    limits (-45.0 90.0)
           (-70.0 20.0)
  end
  begin
     id 5 
     name ltoes
     direction 1.53513e-011 -4.21834e-011 1   
     length 1.09718   
     axis -90 7.62852e-016 20   XYZ
    dof rx
    limits (-90.0 20.0)
  end
  begin
     id 6 
     name rhipjoint
     direction -0.621946 -0.740623 0.254285   
     length 2.50835  
     axis 0 0 0  XYZ 
  end
  begin
     id 7 
     name rfemur
     direction -0.34202 -0.939693 0   
     length 7.43366   
     axis 0 0 -20   XYZ
    dof rx ry rz
    limits (-160.0 20.0)
           (-70.0 70.0)
           (-70.0 60.0)
  end
  begin
     id 8 
     name rtibia
     direction -0.34202 -0.939693 0   
     length 7.77122   
     axis 0 0 -20   XYZ
    dof rx
    limits (-10.0 170.0)
 end
 begin
     id 9 
     name rfoot
     direction -0.082694 -0.2272 0.970331   
     length 2.2293  
     axis -90 -7.62852e-016 -20   XYZ
    dof rx rz
    limits (-45.0 90.0)
           (-20.0 70.0)
  end
  begin
     id 10 
     name rtoes
     direction -1.53565e-011 -4.21695e-011 1   
     length 1.1178   
     axis -90 -7.62852e-016 -20   XYZ
    dof rx
    limits (-90.0 20.0)
  end
  begin
     id 11 
     name lowerback
     direction -0.000695208 0.988391 -0.151929   
     length 1.95077   
     axis 0 0 0   XYZ
    dof rx ry rz
    limits (-20.0 45.0)
           (-30.0 30.0)
           (-30.0 30.0)
  end
  begin
     id 12 
     name upperback
     direction -0.00268925 0.999885 -0.0149203   
     length 1.96246   
     axis 0 0 0   XYZ
    dof rx ry rz
    limits (-20.0 45.0)
           (-30.0 30.0)
           (-30.0 30.0)
  end
  begin
     id 13 
     name thorax
     direction -0.000848408 0.998481 0.0550912   
     length 2.00867   
     axis 0 0 0   XYZ
    dof rx ry rz
    limits (-20.0 45.0)
           (-30.0 30.0)
           (-30.0 30.0)
  end
  begin
     id 14 
     name lowerneck
     direction -0.00577709 0.998999 0.0443608   
     length 1.75762   
     axis 0 0 0   XYZ
    dof rx ry rz
    limits (-20.0 45.0)
           (-30.0 30.0)
           (-30.0 30.0)
  end
  begin
     id 15 
     name upperneck
     direction 0.0320945 0.999136 0.0264105   
     length 1.72601   
     axis 0 0 0   XYZ
    dof rx ry rz
    limits (-20.0 45.0)
           (-30.0 30.0)
           (-30.0 30.0)
  end
  begin
     id 16
     name head
     direction 0.0120552 0.999916 0.00480151  
     length 1.79973  
     axis 0 0 0   XYZ
    dof rx ry rz
    limits (-20.0 45.0)
           (-30.0 30.0)
           (-30.0 30.0)
  end
  begin
     id 17 
     name lclavicle
     direction 0.909 0.371533 -0.188897  
     length 3.47956  
     axis 0 0 0   XYZ
    dof ry rz
    limits (-20.0 10.0)
           (0.0 20.0)
  end
  begin
     id 18 
     name lhumerus
     direction 1 -4.48963e-011 -6.48352e-028   
     length 5.52302   
     axis 180 -30 -90   XYZ
    dof rx ry rz
    limits (-60.0 90.0)
           (-90.0 90.0)
           (-90.0 90.0)
  end
  begin
     id 19
     name lradius
     direction 1 -4.48968e-011 -4.78536e-027   
     length 3.58675   
     axis 180 -30 -90   XYZ
    dof rx
    limits (-10.0 170.0)
  end
  begin
     id 20
     name lwrist
     direction 1 -4.48942e-011 -9.9435e-027   
     length 1.79337   
     axis 8.54312e-015 90 90   XYZ
    dof ry
    limits (-180.0 0.0)
 end
  begin
     id 21 
     name lhand
     direction 1 -4.4904e-011 -1.9887e-026   
     length 0.536412   
     axis 1.26896e-014 90 90   XYZ
    dof rx rz
    limits (-90.0 90.0)
           (-45.0 45.0)
  end
  begin
     id 22 
     name lfingers
     direction 1 -4.48893e-011 -3.9774e-026   
     length 0.432469   
     axis 2.53792e-014 90 90   XYZ
    dof rx
    limits (0.0 90.0)
  end
  begin
     id 23
     name lthumb
     direction 0.707107 -6.34934e-011 0.707107   
     length 0.620942   
     axis -90 45 2.85299e-015   XYZ
    dof rx rz
    limits (-45.0 45.0)
           (-45.0 45.0)
  end
  begin
     id 24 
     name rclavicle
     direction -0.89595 0.416672 -0.153813   
     length 3.44099  
     axis 0 0 0   XYZ 
    dof ry rz
    limits (-10.0 20.0)
           (-20.0 0.0)
  end
  begin
     id 25 
     name rhumerus
     direction -1 -4.48952e-011 5.57804e-028  
     length 5.8478   
     axis 180 30 90   XYZ
    dof rx ry rz
    limits (-90.0 60.0)
           (-90.0 90.0)
           (-90.0 90.0)
  end
  begin
     id 26 
     name rradius
     direction -1 -4.48967e-011 -7.93646e-027   
     length 3.62717   
     axis 180 30 90   XYZ
    dof rx
    limits (-10.0 170.0)
  end
  begin
     id 27 
     name rwrist
     direction -1 -4.49008e-011 -9.9435e-027   
     length 1.81359   
     axis 8.54312e-015 -90 -90   XYZ
    dof ry
    limits (-180.0 0.0)
  end
  begin
     id 28
     name rhand
     direction -1 -4.48812e-011 -1.9887e-026   
     length 0.650516   
     axis 1.26896e-014 -90 -90   XYZ
    dof rx rz
    limits (-90.0 90.0)
           (-45.0 45.0)
  end
  begin
     id 29
     name rfingers
     direction -1 -4.49228e-011 -3.9774e-026   
     length 0.524463   
     axis 2.53792e-014 -90 -90   XYZ
    dof rx
    limits (0.0 90.0)
  end
  begin
     id 30
     name rthumb
     direction -0.707107 -6.34912e-011 0.707107   
     length 0.753027   
     axis -90 -45 -2.85299e-015   XYZ
    dof rx rz
    limits (-45.0 45.0)
           (-45.0 45.0)
  end
:hierarchy
  begin
    root lhipjoint rhipjoint lowerback
    lhipjoint lfemur
    lfemur ltibia
    ltibia lfoot
    lfoot ltoes
    rhipjoint rfemur
    rfemur rtibia
    rtibia rfoot
    rfoot rtoes
    lowerback upperback
    upperback thorax
    thorax lowerneck lclavicle rclavicle
    lowerneck upperneck
    upperneck head
    lclavicle lhumerus
    lhumerus lradius
    lradius lwrist
    lwrist lhand lthumb
    lhand lfingers
    rclavicle rhumerus
    rhumerus rradius
    rradius rwrist
    rwrist rhand rthumb
    rhand rfingers
  end

#!OML:ASF F:\VICON\USERDATA\INSTALL\rory3\rory3.ASF
:FULLY-SPECIFIED
:DEGREES
1619
root -8.36512 17.6286 12.0908 -184.099 181.746 -176.349
lowerback 11.2727 -2.50059 -5.79201
upperback 3.00388 -4.08377 -2.98146
thorax -2.98002 -2.00432 0.694053
lowerneck -1.6658 -2.35087 -1.01853
upperneck 0.238817 -3.20173 8.11048
head 0.523195 -1.56238 2.7107
rclavicle -1.37161e-014 -2.54444e-014
rhumerus -40.6744 -11.9859 -79.9747
rradius 15.262
rwrist 12.863
rhand -21.6651 15.4748
rfingers 7.12502
rthumb 4.7322 -14.4524
lclavicle -1.37161e-014 -2.54444e-014
lhumerus -7.8031 -3.28075 84.1934
lradius 25.5364
lwrist 8.59382
lhand -36.9029 21.0785
lfingers 7.12502
lthumb -9.98093 -309.178
rfemur -24.824 11.5507 12.3323
rtibia 20.1663
rfoot -7.52087 -16.8697
rtoes -0.32682
lfemur 9.64099 -5.77397 -27.6377
ltibia 17.554
lfoot -15.1346 -1.69502
ltoes -15.2617
1620
root -8.33945 17.6572 11.9228 -184.029 182.306 -176.58
lowerback 11.3258 -2.33848 -5.50516
upperback 3.01509 -3.8399 -2.94495
thorax -3.02688 -1.884 0.544702
lowerneck -1.85565 -2.43448 -0.981932
upperneck 0.219 -3.31324 7.92503
head 0.550488 -1.6154 2.63813
rclavicle 2.04748e-014 1.90833e-014
rhumerus -40.5921 -12.1987 -79.8762
rradius 15.3944
rwrist 13.0071
rhand -20.9967 15.0562
rfingers 7.12502
rthumb 5.3775 -14.8556
lclavicle 2.04748e-014 1.90833e-014
lhumerus -7.41613 -4.13439 84.241
lradius 26.4474
lwrist 9.12667
lhand -37.1484 21.9086
lfingers 7.12502
lthumb -10.2178 -308.36
rfemur -24.8122 11.6887 12.6739
rtibia 20.4156
rfoot -6.8692 -17.7207
rtoes -1.52766
lfemur 8.94576 -5.78901 -27.4955
ltibia 17.6563
lfoot -15.0688 -1.15371
ltoes -14.0966
1621
root -8.31929 17.6878 11.7624 -183.927 182.973 -177.083
lowerback 11.1894 -2.18552 -5.02567
upperback 2.93216 -3.57352 -2.8047
thorax -3.07227 -1.75259 0.386165
lowerneck -1.4938 -2.46743 -1.13875
upperneck 0.120166 -3.34297 7.90463
head 0.460994 -1.64046 2.6644
rclavicle 2.04748e-014 1.82882e-014
rhumerus -40.5012 -12.2996 -79.7683
rradius 15.0896
rwrist 13.4914
rhand -20.8644 15.6324
rfingers 7.12502
rthumb 5.50529 -14.2761
lclavicle 2.04748e-014 1.82882e-014
lhumerus -7.27617 -4.378 84.3183
lradius 27.2899
lwrist 9.09311
lhand -34.9846 24.6901
lfingers 7.12502
lthumb -8.1299 -305.486
rfemur -24.7371 11.949 13.344
rtibia 20.7973
rfoot -5.88168 -18.3903
rtoes -2.52228
lfemur 8.12932 -5.72732 -27.0386
ltibia 17.9776
lfoot -14.9912 -0.449125
ltoes -13.6566
1622
root -8.30469 17.7216 11.6002 -183.834 183.649 -177.792
lowerback 11.0795 -2.05006 -4.3883
upperback 2.86833 -3.31155 -2.59505
thorax -3.11372 -1.62474 0.212564
lowerneck -0.974334 -2.46219 -1.33719
upperneck -0.0530499 -3.31626 7.89289
head 0.319126 -1.64208 2.70486
rclavicle 3.33958e-014 3.18055e-015
rhumerus -40.4021 -12.3673 -79.6698
rradius 14.8144
rwrist 14.153
rhand -20.7524 16.121
rfingers 7.12502
rthumb 5.61342 -13.7846
lclavicle 3.33958e-014 3.18055e-015
lhumerus -7.08633 -4.47531 84.4015
lradius 27.7728
lwrist 9.09138
lhand -35.1381 22.0935
lfingers 7.12502
lthumb -8.27807 -308.089
rfemur -24.6159 12.2436 14.2852
rtibia 21.4375
rfoot -5.54366 -19.0038
rtoes -2.16295
lfemur 7.30669 -5.66802 -26.3461
ltibia 18.3774
lfoot -14.8543 0.136535
ltoes -12.448
1623
root -8.28981 17.7529 11.4399 -183.915 184.163 -178.039
lowerback 11.205 -1.92305 -4.23753
upperback 2.85651 -3.13254 -2.51972
thorax -3.205 -1.53504 0.188776
lowerneck -1.01254 -2.50847 -1.32521
upperneck 0.179127 -3.39202 7.72962
head 0.39879 -1.67422 2.6453
rclavicle -7.55382e-015 1.43125e-014
rhumerus -40.1498 -12.425 -79.59
rradius 14.4824
rwrist 15.0185
rhand -20.43 16.483
rfingers 7.12502
rthumb 5.92466 -13.4142
lclavicle -7.55382e-015 1.43125e-014
lhumerus -6.96111 -4.53619 84.4393
lradius 28.3116
lwrist 9.18932
lhand -35.8887 19.1815
lfingers 7.12502
lthumb -9.00241 -311.031
rfemur -24.3412 12.3948 14.7747
rtibia 22.406
rfoot -6.00921 -19.4579
rtoes -2.11314
lfemur 6.66776 -5.71457 -26.1885
ltibia 18.7991
lfoot -14.6066 0.726087
ltoes -10.6887
1624
root -8.27544 17.7838 11.2861 -184.065 184.614 -178.018
lowerback 11.2967 -1.82121 -4.38018
upperback 2.84877 -3.02027 -2.51191
thorax -3.25902 -1.47762 0.265149
lowerneck -1.24403 -2.60092 -1.24356
upperneck 0.681985 -3.54756 7.4957
head 0.597471 -1.73682 2.54488
rclavicle 2.14687e-014 7.95139e-016
rhumerus -39.8167 -12.3666 -79.5123
rradius 14.0499
rwrist 16.0014
rhand -19.5382 16.4397
rfingers 7.12502
rthumb 6.7856 -13.4315
lclavicle 2.14687e-014 7.95139e-016
lhumerus -7.14842 -4.21324 84.5119
lradius 29.2061
lwrist 8.80198
lhand -35.6852 20.7621
lfingers 7.12502
lthumb -8.80605 -309.442
rfemur -24.1531 12.4793 15.0132
rtibia 23.7584
rfoot -6.51617 -19.7345
rtoes -1.18763
lfemur 6.12454 -5.79916 -26.3119
ltibia 19.1941
lfoot -14.3011 1.49536
ltoes -10.388
1625
root -8.26442 17.8096 11.1366 -184.15 185.071 -178.089
lowerback 11.2347 -1.7396 -4.45923
upperback 2.88989 -2.91431 -2.47307
thorax -3.17938 -1.42701 0.332223
lowerneck -1.6175 -2.74407 -1.17068
upperneck 1.25169 -3.7752 7.28171
head 0.845391 -1.83182 2.45027
rclavicle 1.37161e-014 4.77083e-015
rhumerus -39.4794 -12.2831 -79.4611
rradius 13.8605
rwrist 17.1805
rhand -18.6556 16.0375
rfingers 7.12502
rthumb 7.63757 -13.8046
lclavicle 1.37161e-014 4.77083e-015
lhumerus -7.31838 -3.80242 84.5726
lradius 30.0609
lwrist 8.515
lhand -36.7422 20.0724
lfingers 7.12502
lthumb -9.82591 -310.177
rfemur -24.1079 11.2689 15.6237
rtibia 25.5314
rfoot -6.47989 -18.4785
rtoes 3.41292
lfemur 5.57382 -5.89709 -26.2871
ltibia 19.4456
lfoot -13.9531 2.16721
ltoes -10.4101
1626
root -8.25345 17.831 10.9917 -184.216 185.518 -178.142
lowerback 11.1325 -1.65555 -4.51847
upperback 2.92843 -2.80175 -2.46915
thorax -3.08382 -1.37364 0.350019
lowerneck -1.91732 -2.94897 -0.912366
upperneck 1.61141 -4.07332 6.96582
head 1.00946 -1.96862 2.28904
rclavicle 1.49089e-014 -5.56597e-015
rhumerus -38.9959 -12.316 -79.5313
rradius 13.4423
rwrist 18.4758
rhand -18.8615 17.3893
rfingers 7.12502
rthumb 7.43887 -12.4599
lclavicle 1.49089e-014 -5.56597e-015
lhumerus -7.36711 -3.65374 84.5533
lradius 30.5612
lwrist 8.55191
lhand -37.5346 17.7298
lfingers 7.12502
lthumb -10.5904 -312.557
rfemur -24.0878 10.1422 16.1702
rtibia 27.4717
rfoot -7.00834 -17.505
rtoes 1.67562
lfemur 4.98493 -6.01015 -26.2531
ltibia 19.7108
lfoot -13.6919 2.65167
ltoes -10.0968
1627
root -8.23457 17.8473 10.8467 -184.338 185.837 -177.979
lowerback 11.1487 -1.58862 -4.67944
upperback 2.88245 -2.73615 -2.49913
thorax -3.13685 -1.33889 0.401501
lowerneck -1.99163 -3.21862 -0.873774
upperneck 1.93039 -4.45016 6.78411
head 1.13306 -2.15021 2.21304
rclavicle 3.84648e-014 -1.59028e-014
rhumerus -38.4965 -12.3263 -79.4778
rradius 12.7776
rwrist 19.71
rhand -19.5623 19.313
rfingers 7.12502
rthumb 6.76233 -10.559
lclavicle 3.84648e-014 -1.59028e-014
lhumerus -7.63563 -3.61796 84.6187
lradius 31.134
lwrist 8.91767
lhand -37.2594 18.0581
lfingers 7.12502
lthumb -10.3248 -312.215
rfemur -23.9959 8.83175 16.4204
rtibia 29.4069
rfoot -7.53799 -16.2207
rtoes 0.269374
lfemur 4.36361 -6.22657 -26.4673
ltibia 20.1212
lfoot -13.3903 3.06246
ltoes -10.2559
1628
root -8.22004 17.8651 10.695 -184.402 186.112 -178.025
lowerback 11.1468 -1.55404 -4.71595
upperback 2.81596 -2.69511 -2.4291
thorax -3.20166 -1.31624 0.49047
lowerneck -1.78704 -3.54821 -1.12014
upperneck 2.06945 -4.8937 6.87216
head 1.1707 -2.37343 2.27963
rclavicle -3.10104e-014 4.77083e-015
rhumerus -38.1525 -12.2527 -79.3388
rradius 12.4877
rwrist 21.0437
rhand -19.1927 19.5002
rfingers 7.12502
rthumb 7.11912 -10.3601
lclavicle -3.10104e-014 4.77083e-015
lhumerus -8.08679 -3.52022 84.743
lradius 31.8493
lwrist 9.42245
lhand -37.5108 18.1106
lfingers 7.12502
lthumb -10.5674 -312.175
rfemur -24.1142 7.60095 16.8478
rtibia 31.4256
rfoot -7.6397 -15.1266
rtoes -2.82121
lfemur 3.7072 -6.28878 -26.3683
ltibia 20.5002
lfoot -13.0163 3.23027
ltoes -11.0948
1629
root -8.21901 17.8901 10.5413 -184.299 186.556 -178.546
lowerback 11.0664 -1.47467 -4.44498
upperback 2.72416 -2.55131 -2.24013
thorax -3.26261 -1.2442 0.515793
lowerneck -1.43033 -3.83527 -1.28409
upperneck 1.9705 -5.27095 7.03918
head 1.10499 -2.57016 2.3631
rclavicle 2.98177e-015 -1.66979e-014
rhumerus -37.9664 -12.2771 -79.274
rradius 12.5415
rwrist 22.1841
rhand -18.8148 19.8389
rfingers 7.12502
rthumb 7.48392 -10.0087
lclavicle 2.98177e-015 -1.66979e-014
lhumerus -8.61543 -3.24248 84.8675
lradius 32.6018
lwrist 9.96501
lhand -37.8096 16.8557
lfingers 7.12502
lthumb -10.8556 -313.445
rfemur -24.4606 6.97092 17.8172
rtibia 33.4934
rfoot -6.08041 -15.0617
rtoes -4.68029
lfemur 2.91808 -6.28735 -25.6507
ltibia 20.8544
lfoot -12.7463 3.42234
ltoes -12.0977
1630
root -8.20556 17.9048 10.3941 -184.427 186.771 -178.46
lowerback 11.118 -1.4602 -4.56734
upperback 2.66298 -2.55422 -2.28511
thorax -3.35141 -1.24245 0.540523
lowerneck -0.958468 -4.15169 -1.40023
upperneck 1.81908 -5.68477 7.1771
head 1.00309 -2.78877 2.4319
rclavicle 7.15625e-015 1.35174e-014
rhumerus -37.7641 -12.2828 -79.32
rradius 12.5497
rwrist 23.2242
rhand -18.5867 20.3063
rfingers 7.12502
rthumb 7.70405 -9.53341
lclavicle 7.15625e-015 1.35174e-014
lhumerus -9.2538 -3.04749 84.881
lradius 33.3593
lwrist 10.6478
lhand -37.832 15.9422
lfingers 7.12502
lthumb -10.8772 -314.36
rfemur -24.4454 5.95663 18.024
rtibia 35.589
rfoot -5.83956 -14.2297
rtoes -6.04845
lfemur 2.35096 -6.40927 -25.6956
ltibia 21.2456
lfoot -12.6637 3.55822
ltoes -11.8567
1631
root -8.18314 17.9112 10.2501 -184.603 186.846 -178.222
lowerback 11.1121 -1.50545 -4.73009
upperback 2.6188 -2.63678 -2.33971
thorax -3.38602 -1.28108 0.586183
lowerneck -0.434013 -4.52805 -1.62404
upperneck 1.69599 -6.17942 7.29738
head 0.909483 -3.04927 2.51601
rclavicle 2.09718e-014 -2.54444e-014
rhumerus -37.4387 -12.1836 -79.2634
rradius 12.5464
rwrist 24.157
rhand -18.1005 19.6539
rfingers 7.12502
rthumb 8.17334 -10.168
lclavicle 2.09718e-014 -2.54444e-014
lhumerus -9.77485 -2.8013 84.9655
lradius 33.8645
lwrist 11.245
lhand -37.9833 15.8295
lfingers 7.12502
lthumb -11.0231 -314.48
rfemur -24.2449 4.91769 17.8981
rtibia 37.7054
rfoot -6.2263 -13.6311
rtoes -7.27379
lfemur 1.83841 -6.5732 -25.9561
ltibia 21.6226
lfoot -12.4038 3.67962
ltoes -11.1834
1632
root -8.17125 17.9273 10.1016 -184.567 186.807 -178.47
lowerback 11.0374 -1.65115 -4.53367
upperback 2.55083 -2.80108 -2.22984
thorax -3.41295 -1.36226 0.611376
lowerneck 0.0904308 -4.78568 -1.97897
upperneck 1.47894 -6.5147 7.57198
head 0.791114 -3.23224 2.6812
rclavicle 4.17448e-015 -2.22639e-014
rhumerus -37.2214 -11.9679 -79.175
rradius 12.884
rwrist 24.8939
rhand -17.5287 18.9107
rfingers 7.12502
rthumb 8.72514 -10.889
lclavicle 4.17448e-015 -2.22639e-014
lhumerus -10.2516 -2.51939 84.9874
lradius 34.2852
lwrist 11.8068
lhand -37.8594 16.2923
lfingers 7.12502
lthumb -10.9036 -314.011
rfemur -24.1804 4.18087 18.2599
rtibia 39.8569
rfoot -6.43736 -13.171
rtoes -7.28386
lfemur 1.19048 -6.83289 -25.5988
ltibia 21.8334
lfoot -12.0346 3.78484
ltoes -11.1056
